<?xml version="1.0" encoding="UTF-8"?>
<svg width="86px" height="77px" viewBox="0 0 86 77" version="1.1" xmlns="http://www.w3.org/2000/svg" xmlns:xlink="http://www.w3.org/1999/xlink">
    <!-- Generator: Sketch 48.1 (47250) - http://www.bohemiancoding.com/sketch -->
    <desc>Created with Sketch.</desc>
    <defs></defs>
    <g id="Start" stroke="none" stroke-width="1" fill="none" fill-rule="evenodd">
        <path d="M45.6515608,0 C41.7989193,0 37.9462796,1.81935976 35.5142068,5.20865185 C34.0638879,4.59975276 31.7285044,3.75609756 28.5601157,3.75609756 C23.3910318,3.75609756 19.516079,6.27972561 16.4592537,9.8597561 C15.3436251,9.65434451 13.1644293,9.36089939 9.94397729,9.999143 C6.88715384,10.6007046 4.41789384,12.5887957 2.70726096,15.0537348 C0.996629988,17.5260094 0,20.5044784 0,23.4536009 L0,48.8292683 C0,51.9251153 0.669378663,54.6834994 2.28332222,56.7742954 C3.89726578,58.8650915 6.49296332,60.097561 9.52003855,60.097561 C12.2644867,60.097561 14.6147462,59.7307555 16.4071924,58.2782012 C16.7493178,57.9994293 16.8831943,57.5519241 17.1583825,57.2071275 C19.2780781,60.1048966 22.7960293,61.9756098 26.6561079,61.9756098 C29.5195566,61.9756098 32.2863178,61.300686 34.4506395,59.7454268 C34.9340785,59.4006283 35.2167056,58.8430826 35.6183313,58.4029149 C35.9381455,59.0631674 36.1166463,59.7747713 36.6075242,60.3616616 C37.9239666,61.9462652 39.9023486,63.0466854 42.4534219,63.5455421 C41.8881696,64.4992378 41.3006043,65.5849848 40.7799781,66.7881098 C39.9395377,68.7395208 39.2106588,70.8743326 39.7089738,73.075171 C39.9544118,74.1755912 40.6386646,75.305354 41.717106,76.0022866 C42.7955493,76.7065549 44.1343047,77 45.6961851,77 C49.9802024,77 54.7476587,75.5327744 59.6192414,74.6230945 C64.4908241,73.706079 69.3400938,73.3246003 73.5497349,74.9825643 L73.8918622,75.1219512 L74.2563007,75.1219512 C77.2610629,75.1219512 79.8195732,74.1462467 81.6640807,72.4295918 C83.5011511,70.7129387 84.6019056,68.3727134 85.2415322,65.7610518 C86.5133504,60.5377287 86.0299114,54.0452558 84.936594,47.5821275 C82.7871482,34.8246003 78.1089423,22.3238381 77.9825028,22.0010485 L78.0643161,20.7172256 L78.0643161,20.6585366 C78.0643161,15.3911976 76.807374,11.972561 74.9628666,9.7203692 C73.110922,7.47551495 70.8127238,6.5291549 69.399594,5.83222227 C66.8113335,4.55573505 63.7470711,4.68778629 61.2183109,4.94455124 C59.2250528,5.13528963 58.258173,5.39205459 57.6259834,5.53144149 C54.3832202,2.47227468 50.865269,0 45.6515608,0 Z M45.6515608,3.75609756 C50.1066399,3.75609756 52.5015256,5.61213749 55.7740388,8.84003383 L56.532666,9.59565549 L57.5813591,9.33155488 C57.5813591,9.33155488 59.3663664,8.8913872 61.5901864,8.67130429 C63.8214455,8.45855517 66.4692062,8.59060641 67.6889611,9.19216798 C69.2805935,9.97713415 70.7978497,10.6227134 72.0027286,12.089939 C73.2076094,13.5571646 74.2488637,15.9634146 74.2563007,20.6365277 L72.352293,51.616997 L72.352293,51.6683503 C72.352293,57.4858994 68.916155,60.097561 64.7362622,60.097561 C60.727433,60.097561 57.1202313,56.5395393 57.1202313,52.5853659 L57.1202313,22.5365854 C57.1202313,20.9739906 57.5069829,19.8662348 57.8714214,19.1546308 C58.2358618,18.4356893 58.4664238,18.2302777 58.4664238,18.2302777 L55.7740388,15.5746003 C55.7740388,15.5746003 55.0525989,16.3082131 54.4650335,17.4673204 C53.8774682,18.6337652 53.3122159,20.3430826 53.3122159,22.5365854 L53.3122159,52.5853659 C53.3122159,56.5395393 49.7050143,60.097561 45.6961851,60.097561 C42.2526081,60.097561 40.5717273,59.2025543 39.5527861,57.9774204 C38.5338431,56.7522866 38.0801542,54.8669021 38.0801542,52.5853659 L38.0801542,22.5365854 L34.2721388,22.5365854 L34.2721388,52.5853659 C34.2721388,54.5587838 33.5283858,55.7692464 32.2119434,56.7156064 C30.8955011,57.6546308 28.894804,58.2195122 26.6561079,58.2195122 C22.4092778,58.2195122 18.9508267,55.600515 18.9508267,51.6683503 L18.9285137,51.6683503 L19.0400771,26.3000186 L15.2320617,26.2853473 L15.1204983,52.049829 C15.068437,53.9645579 14.6370593,54.852229 13.9899937,55.3804302 C13.2908668,55.9453134 11.8777351,56.3414634 9.52003855,56.3414634 C7.43753012,56.3414634 6.23265119,55.6958841 5.31039746,54.5000948 C4.39558078,53.3043073 3.80801542,51.3675695 3.80801542,48.8292683 L3.80801542,23.4536009 C3.80801542,21.3701405 4.5740815,19.0225796 5.84589963,17.1738753 C7.12515481,15.3325086 8.85809885,14.04135 10.6877303,13.6745427 L10.6951693,13.6745427 C14.1015571,13.0069546 16.5633801,13.6525338 16.5633801,13.6525338 L17.7980091,13.9753235 L18.5640752,12.9629387 C21.2787732,9.39757956 24.1124736,7.51219512 28.5601157,7.51219512 C31.8475049,7.51219512 35.305956,9.18483232 35.305956,9.18483232 L37.0165869,10.0504964 L37.8793404,8.34851466 C39.4412227,5.26734088 42.5277982,3.75609756 45.6515608,3.75609756 Z M77.3503132,32.2642921 C78.7113817,36.805354 80.2212008,42.4908537 81.1880788,48.1983622 C82.2367701,54.4120613 82.5863344,60.5964177 81.5376432,64.8807165 C81.0170151,67.0228659 80.1691376,68.6441497 79.0460701,69.7005521 C77.9601917,70.7129387 76.5768101,71.299829 74.4943017,71.3438448 C69.3252178,69.4584604 63.8809457,69.9939972 58.9052385,70.925686 C53.7807808,71.8940549 49.0281985,73.2439024 45.6961851,73.2439024 C44.6251807,73.2439024 44.0599284,73.0384909 43.8144904,72.8697594 C43.5690524,72.7083656 43.5021132,72.6129964 43.4277388,72.2608622 C43.2641122,71.5639296 43.5839265,69.8912924 44.2904923,68.2553354 C45.1755589,66.1938839 46.2465632,64.5652625 46.7746264,63.7802982 C50.3372039,63.4134909 53.3642791,61.2786771 55.2162236,58.3662348 C57.2541078,61.5647866 60.7051218,63.8536585 64.7362622,63.8536585 C70.7309124,63.8536585 76.1008082,59.1732098 76.1603084,51.7857284 L77.3503132,32.2642921 Z" id="Shape" fill="#FFA2A2" fill-rule="nonzero"></path>
    </g>
</svg>