<?xml version="1.0" encoding="UTF-8"?>
<svg width="71px" height="108px" viewBox="0 0 71 108" version="1.1" xmlns="http://www.w3.org/2000/svg" xmlns:xlink="http://www.w3.org/1999/xlink">
    <!-- Generator: Sketch 48.1 (47250) - http://www.bohemiancoding.com/sketch -->
    <desc>Created with Sketch.</desc>
    <defs></defs>
    <g id="Start" stroke="none" stroke-width="1" fill="none" fill-rule="evenodd">
        <path d="M38.7753709,0 C38.5152237,0.0084375 38.2550785,0.059062608 38.0033225,0.151875 C36.0312418,0.34593696 34.2102151,1.11375 32.9430482,2.46375 C31.4996534,3.99093696 30.6604703,5.99906304 30.2240951,8.21812608 C30.2157038,8.25187608 30.2157038,8.27718696 30.2073125,8.3025 L25.1973903,40.2131261 L17.1915829,14.47875 L17.2251502,14.58 C16.5873711,12.141563 15.5719602,10.150313 14.1033893,8.72437608 C12.6348184,7.29843696 10.7130898,6.51375 8.73261779,6.48 C8.7242265,6.48 8.70744177,6.48 8.69905047,6.48 L7.79273278,6.48 C5.61924815,6.45468696 3.37863102,7.14656304 1.82614077,8.86781304 C0.273652665,10.589063 -0.347341717,13.19625 0.189735434,16.1325 C0.189735434,16.1831261 0.206518021,16.23375 0.214909314,16.2843761 L10.5284706,57.332813 C10.2515386,57.467813 9.99978473,57.5606261 9.71446142,57.7293761 C6.85284777,59.4506261 3.71430424,62.8593761 2.70728458,68.622187 C1.97719479,72.79875 2.79120181,76.806563 3.36184628,78.73875 L3.36184628,78.747187 C3.37023758,78.747187 3.36184628,78.7556261 3.36184628,78.7556261 L8.83331976,97.748437 C10.822183,104.675626 18.1482527,108 24.7694064,108 L51.6652226,108 C62.3144549,108 71,99.267187 71,88.56 L71,64.8 C71,56.607187 67.5929179,50.549063 66.7033828,49.097813 L66.7033828,43.2 C66.7033828,38.449687 62.8347495,34.56 58.1101484,34.56 C56.5073082,34.56 55.0135635,35.0325 53.7212205,35.817187 C53.2932387,31.7756261 50.0372085,28.62 45.9923452,28.240313 C45.8161172,28.1643761 45.6314959,28.122187 45.4468767,28.0968761 L47.3602141,8.85937608 C47.3602141,8.78343696 47.3686054,8.71593696 47.3686054,8.64 C47.3686054,5.99906304 46.420329,3.69562608 44.7839216,2.19375 C43.1559075,0.68343696 40.9908142,0 38.7753709,0 Z M38.7753709,4.32 C40.1264551,4.32 41.1754355,4.71656304 41.8719558,5.36625 C42.5768696,6.01593696 43.0552056,6.96093696 43.0635968,8.62312608 L41.0159902,29.235937 C38.4145217,30.7293761 36.6270623,33.51375 36.6270623,36.72 L36.6270623,53.02125 L15.3118129,55.78875 C15.3118129,55.78875 15.009707,55.830937 14.5985078,55.898437 L4.41082456,15.347813 C4.05836875,13.356563 4.46117661,12.377813 5.00664506,11.77875 C5.56050694,11.162813 6.50039196,10.7831261 7.72559814,10.8 C7.74238287,10.8 7.75077416,10.8 7.75916546,10.8 L8.66548315,10.8 C9.63893549,10.8168761 10.3774166,11.112187 11.1158977,11.8293761 C11.8543787,12.546563 12.5760772,13.778437 13.0628023,15.66 C13.0711936,15.702187 13.0795871,15.735937 13.0963696,15.76125 L23.8379127,50.32125 C23.8379127,50.346563 23.846304,50.3718761 23.8630887,50.397187 C23.8630887,50.4056261 23.8630887,50.4225 23.87148,50.430937 C23.8882647,50.4731261 23.9050473,50.515313 23.921832,50.5575 C23.9386146,50.599687 23.9637907,50.650313 23.9889667,50.6925 C23.9889667,50.700937 23.997358,50.7093761 24.0057493,50.72625 C24.022534,50.768437 24.0561013,50.8106261 24.0812752,50.86125 C24.1064512,50.886563 24.1316273,50.920313 24.1484099,50.954063 C24.1651946,50.970937 24.1819772,50.987813 24.1987619,51.004687 C24.2239379,51.0468761 24.2491118,51.0806261 24.2742879,51.105937 C24.2994639,51.13125 24.3162465,51.156563 24.3414225,51.1818761 C24.3582072,51.19875 24.3749898,51.2156261 24.3917746,51.2325 C24.4924765,51.33375 24.6099611,51.426563 24.7274478,51.5025 C24.7274478,51.5025 24.7274478,51.5025 24.7358391,51.5025 C24.786189,51.53625 24.836541,51.561563 24.8868909,51.595313 C24.912067,51.60375 24.9288517,51.612187 24.9540256,51.629063 C24.9875929,51.6375 25.0127689,51.6543761 25.0463363,51.67125 C25.0799036,51.679687 25.1134709,51.696563 25.1470382,51.705 C25.1889968,51.7218761 25.2309576,51.73875 25.2729162,51.747187 C25.2980922,51.7556261 25.3232661,51.764063 25.3484422,51.7725 C25.3904008,51.780937 25.4323615,51.7893761 25.4827114,51.797813 C25.5078875,51.80625 25.5330635,51.80625 25.5666308,51.814687 C25.6001981,51.8231261 25.6337655,51.8231261 25.6757241,51.831563 C25.7092914,51.831563 25.7428587,51.831563 25.7848173,51.84 C25.8183847,51.84 25.851952,51.84 25.8855193,51.84 C25.9274779,51.84 25.9610452,51.84 25.9946126,51.84 C26.0365733,51.831563 26.0701407,51.831563 26.103708,51.831563 C26.1372753,51.8231261 26.1792339,51.8231261 26.2128012,51.814687 C26.2379773,51.814687 26.2715446,51.80625 26.2967185,51.80625 C26.3554618,51.7893761 26.4058139,51.7725 26.4645551,51.764063 C26.5065158,51.747187 26.5484745,51.73875 26.5904331,51.7218761 C26.6156091,51.713437 26.6407851,51.705 26.665959,51.696563 C26.6827437,51.6881261 26.691135,51.679687 26.7079198,51.67125 C26.7582697,51.6543761 26.8086217,51.629063 26.8589716,51.60375 C26.9009303,51.5868761 26.942891,51.561563 26.9764583,51.53625 C26.9848496,51.53625 26.9848496,51.53625 26.9932409,51.527813 C27.0519843,51.494063 27.1023342,51.460313 27.1610775,51.426563 C27.1778623,51.409687 27.2030362,51.392813 27.2282122,51.3675 C27.2617795,51.342187 27.2953468,51.3168761 27.3289142,51.291563 C27.3456989,51.26625 27.3708728,51.2493761 27.3876575,51.2325 C27.3960488,51.2156261 27.4128335,51.207187 27.4212248,51.190313 C27.4547921,51.156563 27.4883595,51.1143761 27.5219268,51.072187 C27.5554941,51.038437 27.5806701,51.004687 27.605844,50.9625 C27.6142375,50.9625 27.6226288,50.954063 27.6226288,50.9456261 C27.6478048,50.9118761 27.6729787,50.8781261 27.6981547,50.852813 C27.7233307,50.802187 27.7485067,50.76 27.7736806,50.717813 C27.7904654,50.6756261 27.8156414,50.633437 27.832424,50.59125 C27.8408153,50.582813 27.8408153,50.5743761 27.8408153,50.5575 C27.8659913,50.5068761 27.8911673,50.45625 27.9079499,50.397187 C27.9163434,50.397187 27.9163434,50.38875 27.9163434,50.38875 C27.9331259,50.3381261 27.9499107,50.2875 27.958302,50.245313 C27.9750846,50.194687 27.983478,50.1525 27.9918693,50.110313 C28.0002606,50.076563 28.0002606,50.05125 28.0086519,50.0175 L34.4451864,9.045 C34.7724683,7.39968696 35.3598954,6.17625 36.0564179,5.43375 C36.7613316,4.69125 37.5165974,4.32 38.7753709,4.32 Z M45.2202967,32.4 C47.6203613,32.4 49.516914,34.3068761 49.516914,36.72 L49.516914,56.12625 C47.5028746,53.552813 44.2720204,52.1268761 40.9236795,52.472813 L40.9236795,36.72 C40.9236795,34.3068761 42.8202343,32.4 45.2202967,32.4 Z M58.1101484,38.88 C60.510213,38.88 62.4067656,40.7868761 62.4067656,43.2 L62.4067656,49.401563 C62.389983,49.570313 62.389983,49.7306261 62.4067656,49.8993761 L62.4067656,58.32 C62.4067656,60.7331261 60.510213,62.64 58.1101484,62.64 C55.7100859,62.64 53.8135312,60.7331261 53.8135312,58.32 L53.8135312,43.2 C53.8135312,40.7868761 55.7100859,38.88 58.1101484,38.88 Z M41.7628626,56.691563 C44.2720204,56.607187 46.5378136,58.277813 47.1420254,60.842813 C47.5196594,62.429063 47.3434293,63.644063 46.7224349,64.69875 C46.1014384,65.736563 44.9349756,66.7068761 42.9712862,67.39875 L24.2155445,72.2756261 C23.5777654,72.4443761 23.0490817,72.9 22.7889344,73.5075 C22.5203958,74.115 22.5539631,74.815313 22.8728516,75.3975 L26.2967185,81.717187 C26.6575677,82.409063 27.3624815,82.85625 28.1345299,82.881563 C28.9149696,82.9068761 29.6450594,82.510313 30.0478672,81.835313 C30.4506751,81.16875 30.4590664,80.325 30.0730433,79.65 L27.9666933,75.760313 L28.4618118,75.63375 C29.5443574,76.2243761 36.9795203,80.620313 38.800547,91.09125 C39.0019509,92.264063 40.1096725,93.057187 41.2845288,92.84625 C42.4509938,92.64375 43.2314335,91.521563 43.0300295,90.34875 C41.6285933,82.2656261 37.1221809,77.085 33.799016,74.241563 L44.2048858,71.541563 C44.2636291,71.524687 44.3139791,71.507813 44.3727224,71.4825 C47.0581082,70.545937 49.1644581,68.993437 50.4064491,66.9093761 C50.9938761,65.922187 51.3463341,64.842187 51.5057772,63.711563 C52.9407808,65.415937 55.0051722,66.580313 57.3381,66.799687 C57.589856,66.900937 57.8500011,66.951563 58.1101484,66.96 C58.3786869,66.951563 58.6388342,66.900937 58.8821968,66.799687 C62.4235503,66.462187 65.3522986,63.998437 66.325751,60.6825 C66.5439375,61.990313 66.7033828,63.34875 66.7033828,64.8 L66.7033828,88.56 C66.7033828,96.938437 59.9983097,103.68 51.6652226,103.68 L24.7694064,103.68 C19.6084301,103.68 14.2376586,100.996876 12.9621004,96.550313 L7.49062688,77.532187 C7.49062688,77.532187 7.48223559,77.52375 7.48223559,77.52375 C7.09621031,76.215937 6.39968999,72.46125 6.94515844,69.364687 C7.74238287,64.76625 9.91586536,62.648437 11.9215134,61.433437 C13.9355527,60.2268761 15.6390948,60.100313 15.6390948,60.100313 C15.6726621,60.100313 15.7062295,60.0918761 15.7481881,60.0918761 L40.453737,56.877187 C40.529263,56.86875 40.6047911,56.8518761 40.680317,56.835 C41.0411662,56.7506261 41.4020133,56.7 41.7628626,56.691563 Z" id="Shape" fill="#FFA2A2" fill-rule="nonzero"></path>
    </g>
</svg>